<svg width="30" height="30" viewBox="0 0 30 30" fill="none" xmlns="http://www.w3.org/2000/svg">
<path fill-rule="evenodd" clip-rule="evenodd" d="M5.27135 0.9375H24.7287C27.1221 0.9375 29.0625 2.87784 29.0625 5.27135V24.7287C29.0625 27.1221 27.1221 29.0625 24.7287 29.0625H5.27135C2.87784 29.0625 0.9375 27.1221 0.9375 24.7287V5.27135C0.9375 2.87784 2.87784 0.9375 5.27135 0.9375Z" fill="#4C75A3"/>
<path fill-rule="evenodd" clip-rule="evenodd" d="M14.7641 20.6256H15.9145C15.9145 20.6256 16.262 20.5873 16.4396 20.3962C16.6029 20.2205 16.5977 19.8909 16.5977 19.8909C16.5977 19.8909 16.5752 18.3471 17.2915 18.1198C17.9979 17.8957 18.9049 19.6117 19.8661 20.2716C20.593 20.7708 21.1454 20.6616 21.1454 20.6616L23.7159 20.6256C23.7159 20.6256 25.0605 20.5427 24.4229 19.4855C24.3707 19.3991 24.0515 18.7035 22.5116 17.2742C20.8997 15.7782 21.1158 16.0202 23.0573 13.4325C24.2397 11.8566 24.7123 10.8946 24.5646 10.4826C24.4239 10.09 23.5542 10.1937 23.5542 10.1937L20.6601 10.2116C20.6601 10.2116 20.4453 10.1824 20.2863 10.2775C20.1308 10.3706 20.0309 10.588 20.0309 10.588C20.0309 10.588 19.5727 11.8074 18.962 12.8446C17.6733 15.0329 17.1579 15.1487 16.9473 15.0126C16.4572 14.6959 16.5796 13.7405 16.5796 13.0616C16.5796 10.9408 16.9013 10.0566 15.9532 9.82768C15.6387 9.75177 15.4069 9.70155 14.6024 9.69335C13.5696 9.68284 12.6958 9.69653 12.2008 9.93897C11.8716 10.1002 11.6176 10.4594 11.7724 10.4801C11.9637 10.5056 12.3968 10.597 12.6264 10.9095C12.9231 11.3131 12.9127 12.2192 12.9127 12.2192C12.9127 12.2192 13.0832 14.7156 12.5147 15.0256C12.1247 15.2383 11.5895 14.8041 10.4405 12.8188C9.85194 11.8018 9.40739 10.6776 9.40739 10.6776C9.40739 10.6776 9.32178 10.4676 9.16888 10.3551C8.98344 10.2189 8.72432 10.1757 8.72432 10.1757L5.97404 10.1937C5.97404 10.1937 5.56127 10.2052 5.40958 10.3847C5.27464 10.5446 5.39881 10.8747 5.39881 10.8747C5.39881 10.8747 7.55184 15.9121 9.98994 18.4506C12.2257 20.7784 14.7641 20.6256 14.7641 20.6256Z" fill="white"/>
</svg>
