<svg width="120" height="32" viewBox="0 0 120 32" fill="none" xmlns="http://www.w3.org/2000/svg">
<g clip-path="url(#clip0_80096_307)">
<path fill-rule="evenodd" clip-rule="evenodd" d="M35.2969 23.663V9.16559H37.1953L46.2187 20.8326V9.16559H48.0234V23.663H46.125L37.1016 11.881V23.663H35.2969ZM62.7188 23.0877C61.5234 23.5249 60.2344 23.7551 58.875 23.7551C53.5312 23.7551 50.8594 21.2468 50.8594 16.2072C50.8594 11.4438 53.4375 9.05053 58.5937 9.05053C60.0703 9.05053 61.4531 9.25764 62.7188 9.64884V11.2597C61.4531 10.7764 60.1406 10.5463 58.8047 10.5463C54.7734 10.5463 52.7578 12.4333 52.7578 16.1612C52.7578 20.1882 54.75 22.1903 58.7109 22.1903C59.3437 22.1903 60.0469 22.0982 60.8203 21.9371V17.0816H62.7188V23.0877ZM65.7656 18.0712V9.16559H67.6641V18.0712C67.6641 20.8556 69.0703 22.2593 71.9062 22.2593C74.7187 22.2593 76.1484 20.8556 76.1484 18.0712V9.16559H78.0469V18.0712C78.0469 21.8681 76.0078 23.7781 71.9062 23.7781C67.8047 23.7781 65.7656 21.8681 65.7656 18.0712ZM83.3438 9.16559V22.1442H91.0781V23.663H81.4453V9.16559H83.3438ZM93.8203 23.663H91.8281L99.1641 7.25562L106.5 23.663H104.391L102.492 19.1067H97.6172L98.1328 17.5879H101.859L99.0937 11.0295L93.8203 23.663ZM108.539 23.663V9.16559H114.844C117.656 9.16559 119.062 10.3162 119.062 12.6404C119.062 14.5273 117.68 15.9311 114.938 16.8285L120 23.663H117.492L112.805 17.1507V15.9311C115.617 15.4938 117.047 14.4353 117.047 12.7324C117.047 11.3977 116.273 10.7304 114.703 10.7304H110.484V23.663H108.539Z" fill="#B52E31"/>
<path fill-rule="evenodd" clip-rule="evenodd" d="M0 5.29979L15.1172 0.00708008L30.6328 5.20774L28.125 24.8368L15.1172 31.9014L2.32031 24.9288L0 5.29979Z" fill="#E23237"/>
<path fill-rule="evenodd" clip-rule="evenodd" d="M30.6328 5.2075L15.1172 0.00683594V31.9012L28.125 24.8365L30.6328 5.2075Z" fill="#B52E31"/>
<path fill-rule="evenodd" clip-rule="evenodd" d="M15.1406 3.73486L5.71875 24.3074L9.23438 24.2384L11.1328 19.59H19.5469L21.6094 24.2844L24.9609 24.3534L15.1406 3.73486ZM15.1641 10.3392L18.3516 16.8746H12.375L15.1641 10.3392Z" fill="white"/>
</g>
<defs>
<clipPath id="clip0_80096_307">
<rect width="120" height="32" fill="white"/>
</clipPath>
</defs>
</svg>
