<svg width="67" height="67" viewBox="0 0 67 67" fill="none" xmlns="http://www.w3.org/2000/svg">
<g clip-path="url(#clip0_80106_30)">
<path d="M66.7022 19.8339C66.7017 18.7184 66.4333 17.7327 65.8905 16.887C65.3573 16.0549 64.5588 15.3576 63.4877 14.8064C54.6466 10.2754 45.7968 5.75825 36.9585 1.22266C34.5758 1.46329e-05 32.2655 0.0448188 29.9004 1.28501C26.3814 3.12937 8.76272 12.101 3.51259 14.8038C1.35044 15.9165 0.298331 17.6191 0.297812 19.8318C0.294434 28.9439 0.297812 38.0559 0.294434 47.168C0.294434 48.259 0.551938 49.2258 1.07084 50.0588C1.6043 50.9158 2.41397 51.6322 3.50973 52.196C8.76012 54.8988 26.3811 63.8697 29.8994 65.7148C32.2655 66.9557 34.5758 67 36.9593 65.7771C45.7979 61.2413 54.6481 56.7242 63.4906 52.1932C64.5863 51.6297 65.396 50.9128 65.9295 50.0565C66.4476 49.2232 66.7056 48.2567 66.7056 47.1655C66.7056 47.1655 66.7056 28.9462 66.7022 19.8339Z" fill="#A179DC"/>
<path d="M33.6016 33.4111L1.0708 50.0588C1.60426 50.9159 2.41393 51.6323 3.50969 52.196C8.76008 54.8988 26.3811 63.8698 29.8993 65.7148C32.2655 66.9557 34.5757 67 36.9593 65.7772C45.7978 61.2414 54.6481 56.7242 63.4906 52.1932C64.5863 51.6297 65.396 50.9129 65.9294 50.0565L33.6016 33.4111Z" fill="#280068"/>
<path d="M66.7022 19.8339C66.7017 18.7184 66.4332 17.7327 65.8904 16.887L33.6016 33.4113L65.9294 50.0565C66.4475 49.2232 66.705 48.2567 66.7056 47.1655C66.7056 47.1655 66.7056 28.9462 66.7022 19.8339Z" fill="#390091"/>
<path d="M52.7548 27.1877V30.2995H56.256V27.1877H58.0065V30.2995H61.5077V31.8554H58.0065V34.967H61.5077V36.5229H58.0065V39.6347H56.256V36.5229H52.7548V39.6347H51.0043V36.5229H47.5034V34.967H51.0043V31.8554H47.5034V30.2995H51.0043V27.1877H52.7548ZM56.256 31.8552H52.7548V34.967H56.256V31.8552Z" fill="white"/>
<path d="M33.6731 11.5598C42.8051 11.5598 50.7778 15.9677 55.0484 22.5197L55.0068 22.4566L44.2623 27.9551C42.1456 24.7696 38.2651 22.6197 33.8132 22.5754L33.6729 22.5747C26.8845 22.5747 21.381 27.4661 21.381 33.4997C21.3788 35.4014 21.9378 37.2703 23.0022 38.92C25.1209 42.2076 29.1041 44.4249 33.6731 44.4249C38.2705 44.4249 42.2763 42.1794 44.3841 38.8568L44.3329 38.9364L55.0611 44.4603C50.8373 50.9568 42.9737 55.3511 33.9481 55.4386L33.6731 55.44C24.5124 55.44 16.517 51.0049 12.2571 44.4182C10.1776 41.2027 8.98779 37.475 8.98779 33.4997C8.98779 21.3827 20.0394 11.5596 33.6729 11.5596L33.6731 11.5598Z" fill="white"/>
</g>
<defs>
<clipPath id="clip0_80106_30">
<rect width="67" height="67" fill="white"/>
</clipPath>
</defs>
</svg>
