<svg width="47" height="65" viewBox="0 0 47 65" fill="none" xmlns="http://www.w3.org/2000/svg">
<path d="M23.3827 65L4.80584 59.7793L0.666016 12.7742H46.155L42.0108 59.7722L23.3827 65Z" fill="#4353AD"/>
<path d="M38.4637 56.7794L42.0047 16.6177H23.4111V61.0039L38.4637 56.7794Z" fill="#485FB5"/>
<path d="M23.412 49.0235L23.387 49.03L17.0449 47.2964L16.6394 42.6987H10.9227L11.7205 51.7505L23.3858 55.0288L23.412 55.0215V49.0235ZM9.13232 22.3827L9.64997 28.1476H23.412V22.3827H9.13232ZM10.1579 34.051L10.6683 39.816H23.412V34.051H10.1579Z" fill="#EDEDED"/>
<path d="M26.9373 6.38962e-05H33.8347V2.53905H29.8218V3.04709H33.8347V8.88672H26.9373V6.22052H30.9504V5.71288H26.9375V6.38962e-05H26.9373ZM18.6605 6.38962e-05H25.5577V2.53905H21.5449V3.04709H25.5577V8.88672H18.6607V6.22052H22.6736V5.71288H18.6603V6.38962e-05H18.6605ZM10.3838 6.38962e-05H17.2809V2.91988H13.2682V5.84009H17.2812V8.75991H10.3838V6.38962e-05Z" fill="#100F0D"/>
<path d="M36.6286 34.0512L37.6565 22.3829H23.3913V28.1477H31.4157L30.8976 34.0512H23.3913V39.8162H30.4038L29.7424 47.2932L23.3911 49.0284V55.0261L35.0656 51.7507L35.151 50.7769L36.4897 35.5992L36.6286 34.0512Z" fill="white"/>
</svg>
