<svg width="46" height="63" viewBox="0 0 46 63" fill="none" xmlns="http://www.w3.org/2000/svg">
<path d="M4.16571 57.9399L0 12.381H45.7746L41.6044 57.9327L22.8592 63L4.16571 57.9399Z" fill="#E53D20"/>
<path d="M22.8872 59.127L38.0342 55.0323L41.5979 16.1062H22.8872V59.127Z" fill="#F15123"/>
<path d="M22.8875 33.0034H15.3046L14.7808 27.2815H22.8875V21.6938H22.8677H8.51807L8.65528 23.1929L10.0637 38.5908H22.8875V33.0034Z" fill="#EDEDED"/>
<path d="M22.8872 47.5146L22.862 47.5212L16.48 45.8408L16.0718 41.3845H12.9707H10.3193L11.1222 50.1578L22.8608 53.3352L22.8872 53.3281V47.5146Z" fill="#EDEDED"/>
<path d="M4.25879 0.000212669H7.17102V2.80567H9.8349V0.000212669H12.7473V8.49585H9.83502V5.65107H7.17114V8.49585H4.259V0.000212669H4.25879Z" fill="#100F0D"/>
<path d="M16.5769 2.81751H14.0132V0.000212669H22.0542V2.81751H19.4893V8.49585H16.5771V2.81751H16.5769Z" fill="#100F0D"/>
<path d="M23.3301 0.000212669H26.3667L28.2346 2.9853L30.1006 0.000212669H33.1384V8.49585H30.2382V4.28493L28.2346 7.30564H28.1846L26.1796 4.28493V8.49585H23.3301V0.000212669Z" fill="#100F0D"/>
<path d="M34.5879 0.000212669H37.501V5.68772H41.5963V8.49585H34.5879V0.000212669Z" fill="#100F0D"/>
<path d="M22.8677 33.0036V38.591H29.9241L29.259 45.8378L22.8677 47.5198V53.333L34.6155 50.1583L34.7016 49.2144L36.0483 34.504L36.1881 33.0036H34.6439H22.8677Z" fill="white"/>
<path d="M22.8677 21.6939V27.2815H36.6912H36.7095L36.8245 26.0255L37.0856 23.1929L37.2226 21.6939H22.8677Z" fill="white"/>
</svg>
