<svg width="65" height="65" viewBox="0 0 65 65" fill="none" xmlns="http://www.w3.org/2000/svg">
<path d="M0.666016 0H64.9438V65H0.666016V0Z" fill="#F7DF1E"/>
<path d="M17.568 54.3188L22.487 51.3084C23.4359 53.0099 24.2992 54.4495 26.3698 54.4495C28.3547 54.4495 29.6061 53.6643 29.6061 50.6104V29.8413H35.6466V50.6967C35.6466 57.0234 31.9793 59.9031 26.6288 59.9031C21.7966 59.9031 18.9917 57.3723 17.5679 54.3183" fill="black"/>
<path d="M38.9272 53.6641L43.8456 50.7844C45.1404 52.9226 46.8231 54.4932 49.8001 54.4932C52.3029 54.4932 53.899 53.2278 53.899 51.4825C53.899 49.3881 52.2595 48.6463 49.498 47.425L47.9883 46.7701C43.6301 44.8943 40.7392 42.5382 40.7392 37.564C40.7392 32.9826 44.1909 29.4919 49.5845 29.4919C53.4246 29.4919 56.186 30.8447 58.1706 34.3789L53.4675 37.433C52.4319 35.557 51.3104 34.8153 49.5846 34.8153C47.8155 34.8153 46.6936 35.9497 46.6936 37.433C46.6936 39.2656 47.8155 40.0075 50.4041 41.142L51.9141 41.7964C57.0487 44.0218 59.9397 46.2904 59.9397 51.3952C59.9397 56.8932 55.6681 59.9035 49.9297 59.9035C44.3206 59.9035 40.6961 57.1984 38.9273 53.6641" fill="black"/>
</svg>
