<svg width="104" height="65" viewBox="0 0 104 65" fill="none" xmlns="http://www.w3.org/2000/svg">
<path d="M51.3659 64.8125C51.0138 64.8125 50.6851 64.7168 50.3799 64.5493L47.2576 62.6593C46.788 62.3961 47.0228 62.3004 47.1637 62.2525C47.7975 62.0372 47.9149 61.9894 48.5722 61.6066C48.6427 61.5587 48.7366 61.5826 48.807 61.6305L51.2016 63.0899C51.2955 63.1378 51.4129 63.1378 51.4833 63.0899L60.8503 57.5633C60.9442 57.5154 60.9912 57.4197 60.9912 57.3001V46.2707C60.9912 46.1511 60.9442 46.0554 60.8503 46.0075L51.4833 40.5048C51.3894 40.457 51.272 40.457 51.2016 40.5048L41.8345 46.0075C41.7406 46.0554 41.6937 46.175 41.6937 46.2707V57.3001C41.6937 57.3958 41.7406 57.5154 41.8345 57.5633L44.3934 59.0705C45.7785 59.7883 46.6472 58.9509 46.6472 58.1135V47.2277C46.6472 47.0842 46.7646 46.9406 46.9289 46.9406H48.1262C48.267 46.9406 48.4079 47.0602 48.4079 47.2277V58.1135C48.4079 60.0036 47.3984 61.1042 45.6377 61.1042C45.0977 61.1042 44.6752 61.1041 43.4779 60.506L41.0129 59.0705C40.4025 58.7117 40.0269 58.0418 40.0269 57.324V46.2946C40.0269 45.5769 40.4025 44.907 41.0129 44.5481L50.3799 39.0215C50.9668 38.6865 51.765 38.6865 52.3519 39.0215L61.719 44.5481C62.3293 44.907 62.705 45.5769 62.705 46.2946V57.324C62.705 58.0418 62.3293 58.7117 61.719 59.0705L52.3519 64.5972C52.0467 64.7407 51.6946 64.8125 51.3659 64.8125ZM54.2535 57.2283C50.1451 57.2283 49.3 55.3143 49.3 53.6874C49.3 53.5439 49.4174 53.4003 49.5817 53.4003H50.8025C50.9433 53.4003 51.0607 53.496 51.0607 53.6396C51.2485 54.9076 51.7885 55.5296 54.277 55.5296C56.249 55.5296 57.0941 55.0751 57.0941 53.9985C57.0941 53.3764 56.8594 52.9218 53.784 52.6108C51.225 52.3476 49.6287 51.7734 49.6287 49.692C49.6287 47.7541 51.225 46.6057 53.9013 46.6057C56.9063 46.6057 58.3853 47.6584 58.5731 49.9552C58.5731 50.0269 58.5497 50.0987 58.5027 50.1705C58.4557 50.2183 58.3853 50.2662 58.3149 50.2662H57.0941C56.9767 50.2662 56.8594 50.1705 56.8359 50.0508C56.5542 48.735 55.8264 48.3043 53.9013 48.3043C51.7415 48.3043 51.4833 49.0699 51.4833 49.6441C51.4833 50.3379 51.7885 50.5533 54.6995 50.9361C57.5871 51.3189 58.9487 51.8691 58.9487 53.9267C58.9253 56.0321 57.235 57.2283 54.2535 57.2283Z" fill="#539E43"/>
<path d="M22.3025 21.676C22.3025 21.2454 22.0677 20.8386 21.6921 20.6233L11.7381 14.7856C11.5738 14.6899 11.386 14.6421 11.1982 14.6182H11.1043C10.9165 14.6182 10.7287 14.6899 10.5643 14.7856L0.610384 20.6233C0.234763 20.8386 0 21.2454 0 21.676L0.0234763 37.3707C0.0234763 37.5861 0.140858 37.8014 0.328668 37.8971C0.516479 38.0167 0.751242 38.0167 0.915576 37.8971L6.8316 34.4519C7.20722 34.2366 7.44199 33.8299 7.44199 33.3992V26.0543C7.44199 25.6236 7.67675 25.2169 8.05237 25.0016L10.5643 23.5182C10.7521 23.3986 10.9634 23.3507 11.1747 23.3507C11.386 23.3507 11.5973 23.3986 11.7616 23.5182L14.2736 25.0016C14.6492 25.2169 14.884 25.6236 14.884 26.0543V33.3992C14.884 33.8299 15.1187 34.2366 15.4944 34.4519L21.4104 37.8971C21.5982 38.0167 21.833 38.0167 22.0208 37.8971C22.2086 37.8014 22.326 37.5861 22.326 37.3707L22.3025 21.676Z" fill="#333333"/>
<path d="M70.1472 0.0717747C69.9594 -0.0239249 69.7246 -0.0239249 69.5603 0.0717747C69.3724 0.191399 69.2551 0.382798 69.2551 0.598122V16.1493C69.2551 16.2929 69.1846 16.4364 69.0438 16.5321C68.9029 16.6039 68.7621 16.6039 68.6212 16.5321L66.1327 15.0727C65.7571 14.8574 65.311 14.8574 64.9354 15.0727L54.9815 20.9343C54.6059 21.1496 54.3711 21.5563 54.3711 21.987V33.6862C54.3711 34.1169 54.6059 34.5236 54.9815 34.7389L64.9354 40.6005C65.311 40.8159 65.7571 40.8159 66.1327 40.6005L76.0867 34.7389C76.4623 34.5236 76.697 34.1169 76.697 33.6862V4.5218C76.697 4.06723 76.4623 3.66051 76.0867 3.44518L70.1472 0.0717747ZM69.2316 29.8343C69.2316 29.954 69.1846 30.0497 69.0907 30.0975L65.6867 32.1072C65.5928 32.1551 65.4754 32.1551 65.3815 32.1072L61.9774 30.0975C61.8835 30.0497 61.8366 29.93 61.8366 29.8343V25.815C61.8366 25.6953 61.8835 25.5996 61.9774 25.5518L65.3815 23.5421C65.4754 23.4942 65.5928 23.4942 65.6867 23.5421L69.0907 25.5518C69.1846 25.5996 69.2316 25.7193 69.2316 25.815V29.8343Z" fill="#333333"/>
<path d="M103.272 25.7192C103.648 25.5039 103.859 25.0972 103.859 24.6665V21.8194C103.859 21.3888 103.624 20.9821 103.272 20.7667L93.3886 14.9291C93.013 14.7137 92.5669 14.7137 92.1913 14.9291L82.2373 20.7907C81.8617 21.006 81.627 21.4127 81.627 21.8434V33.5426C81.627 33.9733 81.8617 34.38 82.2373 34.5953L92.1209 40.3373C92.4965 40.5526 92.9425 40.5526 93.2947 40.3373L99.2811 36.94C99.4689 36.8443 99.5863 36.629 99.5863 36.4136C99.5863 36.1983 99.4689 35.983 99.2811 35.8873L89.2802 30.0257C89.0924 29.9061 88.975 29.7147 88.975 29.4993V25.8388C88.975 25.6235 89.0924 25.4082 89.2802 25.3125L92.4026 23.4942C92.5904 23.3746 92.8251 23.3746 93.013 23.4942L96.1353 25.3125C96.3231 25.4321 96.4405 25.6235 96.4405 25.8388V28.7098C96.4405 28.9251 96.5579 29.1405 96.7457 29.2362C96.9335 29.3558 97.1683 29.3558 97.3561 29.2362L103.272 25.7192Z" fill="#333333"/>
<path d="M92.6371 25.1689C92.7076 25.1211 92.8015 25.1211 92.8719 25.1689L94.7735 26.2934C94.8439 26.3413 94.8909 26.413 94.8909 26.5087V28.7577C94.8909 28.8534 94.8439 28.9252 94.7735 28.973L92.8719 30.0975C92.8015 30.1453 92.7076 30.1453 92.6371 30.0975L90.7355 28.973C90.6651 28.9252 90.6182 28.8534 90.6182 28.7577V26.5087C90.6182 26.413 90.6651 26.3413 90.7355 26.2934L92.6371 25.1689Z" fill="#539E43"/>
<mask id="mask0_80096_280" style="mask-type:alpha" maskUnits="userSpaceOnUse" x="27" y="14" width="23" height="27">
<path d="M38.947 14.9769C38.5714 14.7616 38.1253 14.7616 37.7497 14.9769L27.8662 20.7907C27.4906 21.006 27.2793 21.4127 27.2793 21.8434V33.4948C27.2793 33.9254 27.5141 34.3322 27.8662 34.5475L37.7497 40.3612C38.1253 40.5766 38.5714 40.5766 38.947 40.3612L48.8305 34.5475C49.2062 34.3322 49.4174 33.9254 49.4174 33.4948V21.8434C49.4174 21.4127 49.1827 21.006 48.8305 20.7907L38.947 14.9769Z" fill="white"/>
</mask>
<g mask="url(#mask0_80096_280)">
<path d="M38.947 14.9769C38.5714 14.7616 38.1253 14.7616 37.7497 14.9769L27.8662 20.7907C27.4906 21.006 27.2793 21.4127 27.2793 21.8434V33.4948C27.2793 33.9254 27.5141 34.3322 27.8662 34.5475L37.7497 40.3612C38.1253 40.5766 38.5714 40.5766 38.947 40.3612L48.8305 34.5475C49.2062 34.3322 49.4174 33.9254 49.4174 33.4948V21.8434C49.4174 21.4127 49.1827 21.006 48.8305 20.7907L38.947 14.9769Z" fill="url(#paint0_linear_80096_280)"/>
<path d="M48.8542 20.7901L38.9237 14.9763C38.8298 14.9285 38.7124 14.8806 38.6185 14.8567L27.4907 34.2837C27.5846 34.4033 27.702 34.499 27.8194 34.5708L37.7499 40.3845C38.0316 40.552 38.3602 40.5999 38.6654 40.5042L49.1124 21.0293C49.042 20.9336 48.9481 20.8618 48.8542 20.7901Z" fill="url(#paint1_linear_80096_280)"/>
<path fill-rule="evenodd" clip-rule="evenodd" d="M48.8775 34.5476C49.1592 34.3802 49.3705 34.0931 49.4644 33.782L38.5714 14.8335C38.2897 14.7857 37.9845 14.8096 37.7263 14.9771L27.8662 20.7669L38.501 40.5289C38.6418 40.5049 38.8062 40.4571 38.947 40.3853L48.8775 34.5476Z" fill="url(#paint2_linear_80096_280)"/>
<path fill-rule="evenodd" clip-rule="evenodd" d="M48.8775 34.5473L38.9705 40.3611C38.8296 40.4328 38.6887 40.4807 38.5244 40.5046L38.7122 40.8635L49.6991 34.3799V34.2363L49.4174 33.7578C49.3705 34.0928 49.1592 34.3799 48.8775 34.5473Z" fill="url(#paint3_linear_80096_280)"/>
<path fill-rule="evenodd" clip-rule="evenodd" d="M48.8775 34.5473L38.9705 40.3611C38.8296 40.4328 38.6887 40.4807 38.5244 40.5046L38.7122 40.8635L49.6991 34.3799V34.2363L49.4174 33.7578C49.3705 34.0928 49.1592 34.3799 48.8775 34.5473Z" fill="url(#paint4_linear_80096_280)"/>
</g>
<defs>
<linearGradient id="paint0_linear_80096_280" x1="42.375" y1="19.3108" x2="31.247" y2="36.4675" gradientUnits="userSpaceOnUse">
<stop stop-color="#41873F"/>
<stop offset="0.3288" stop-color="#418B3D"/>
<stop offset="0.6352" stop-color="#419637"/>
<stop offset="0.9319" stop-color="#3FA92D"/>
<stop offset="1" stop-color="#3FAE2A"/>
</linearGradient>
<linearGradient id="paint1_linear_80096_280" x1="36.8478" y1="29.033" x2="64.2108" y2="14.4455" gradientUnits="userSpaceOnUse">
<stop offset="0.1376" stop-color="#41873F"/>
<stop offset="0.4032" stop-color="#54A044"/>
<stop offset="0.7136" stop-color="#66B848"/>
<stop offset="0.9081" stop-color="#6CC04A"/>
</linearGradient>
<linearGradient id="paint2_linear_80096_280" x1="26.9183" y1="27.6696" x2="49.7882" y2="27.6696" gradientUnits="userSpaceOnUse">
<stop offset="0.0919165" stop-color="#6CC04A"/>
<stop offset="0.2864" stop-color="#66B848"/>
<stop offset="0.5968" stop-color="#54A044"/>
<stop offset="0.8624" stop-color="#41873F"/>
</linearGradient>
<linearGradient id="paint3_linear_80096_280" x1="26.9183" y1="37.3302" x2="49.7882" y2="37.3302" gradientUnits="userSpaceOnUse">
<stop offset="0.0919165" stop-color="#6CC04A"/>
<stop offset="0.2864" stop-color="#66B848"/>
<stop offset="0.5968" stop-color="#54A044"/>
<stop offset="0.8624" stop-color="#41873F"/>
</linearGradient>
<linearGradient id="paint4_linear_80096_280" x1="53.1201" y1="18.7599" x2="47.1109" y2="49.6577" gradientUnits="userSpaceOnUse">
<stop stop-color="#41873F"/>
<stop offset="0.3288" stop-color="#418B3D"/>
<stop offset="0.6352" stop-color="#419637"/>
<stop offset="0.9319" stop-color="#3FA92D"/>
<stop offset="1" stop-color="#3FAE2A"/>
</linearGradient>
</defs>
</svg>
