<svg width="65" height="65" viewBox="0 0 65 65" fill="none" xmlns="http://www.w3.org/2000/svg">
<g clip-path="url(#clip0_80146_2)">
<path d="M58.6523 0H6.34766C2.84194 0 0 2.84194 0 6.34766V58.6523C0 62.1581 2.84194 65 6.34766 65H58.6523C62.1581 65 65 62.1581 65 58.6523V6.34766C65 2.84194 62.1581 0 58.6523 0Z" fill="#3178C6"/>
<path fill-rule="evenodd" clip-rule="evenodd" d="M40.2441 51.67V58.0176C41.2725 58.5508 42.5293 58.9444 43.9258 59.211C45.3223 59.4776 46.8457 59.6045 48.3691 59.6045C49.8926 59.6045 51.2891 59.4649 52.6855 59.1729C54.082 58.8809 55.2246 58.3985 56.2402 57.7764C57.2686 57.1036 58.1445 56.253 58.6523 55.1104C59.1602 53.9678 59.5537 52.6983 59.5537 51.0479C59.5537 49.8926 59.376 48.8897 59.0332 48.001C58.6904 47.1124 58.1953 46.3506 57.5098 45.7159C56.8623 45.043 56.1133 44.4463 55.2246 43.9385C54.3359 43.4307 53.3203 42.8975 52.1777 42.4151C51.3398 42.0723 50.6543 41.7422 49.8926 41.4122C49.2324 41.0821 48.6611 40.752 48.2422 40.4219C47.7725 40.0791 47.417 39.7237 47.1631 39.3555C46.9092 38.9747 46.7822 38.5557 46.7822 38.086C46.7822 37.6543 46.8952 37.2608 47.125 36.9053C47.3548 36.5499 47.6709 36.2579 48.0771 36.004C48.4834 35.75 48.9912 35.5596 49.6006 35.42C50.1973 35.2803 50.8574 35.2168 51.6318 35.2168C52.165 35.2168 52.7236 35.2562 53.2822 35.3362C53.8662 35.4162 54.4629 35.5393 55.0596 35.7043C55.6563 35.8694 56.2402 36.0725 56.8369 36.3264C57.3955 36.5803 57.916 36.8723 58.3604 37.2024V31.2356C57.3955 30.8674 56.3291 30.5881 55.1865 30.4104C54.0439 30.2327 52.7744 30.1438 51.251 30.1438C49.7275 30.1438 48.3311 30.3088 46.9346 30.6262C45.5381 30.9436 44.3955 31.4514 43.3799 32.1497C42.3516 32.8352 41.6025 33.6731 40.9678 34.8157C40.3711 35.8821 40.0791 37.1008 40.0791 38.6243C40.0791 40.5286 40.625 42.179 41.7295 43.4485C42.8213 44.845 44.5225 45.8606 46.6807 46.8762C47.5566 47.2317 48.3311 47.5872 49.0928 47.9299C49.8545 48.2727 50.4893 48.6282 50.9971 48.9963C51.543 49.3645 51.9746 49.7708 52.2666 50.2024C52.584 50.634 52.749 51.1418 52.749 51.7258C52.749 52.1321 52.65 52.5129 52.457 52.8684C52.2641 53.2239 51.9619 53.5286 51.5557 53.7825C51.1494 54.0364 50.6543 54.2395 50.0322 54.3918C49.4355 54.5315 48.7627 54.6077 47.874 54.6077C46.4775 54.6077 45.0811 54.3665 43.8115 53.884C42.415 53.4016 41.1455 52.678 40.0029 51.7258L40.2441 51.67ZM29.5801 36.0547H37.7051V30.8497H14.9805V36.0547H23.1055V59.2872H29.5801V36.0547Z" fill="white"/>
</g>
<defs>
<clipPath id="clip0_80146_2">
<rect width="65" height="65" fill="white"/>
</clipPath>
</defs>
</svg>
